<svg id="Component_3_1" data-name="Component 3 – 1" xmlns="http://www.w3.org/2000/svg" xmlns:xlink="http://www.w3.org/1999/xlink" width="53.24" height="33.432" viewBox="0 0 53.24 33.432">
  <defs>
    <clipPath id="clip-path">
      <rect id="Rectangle_4" data-name="Rectangle 4" width="53.24" height="33.432" transform="translate(0 0)" fill="#f3c1c0"/>
    </clipPath>
  </defs>
  <g id="Group_3" data-name="Group 3" transform="translate(0 0)" clip-path="url(#clip-path)">
    <path id="Path_7" data-name="Path 7" d="M51.83,17.388a4.093,4.093,0,0,1-5.787,0l-3.962-3.962a.85.85,0,0,0-1.168,0l-3.961,3.962a4.093,4.093,0,0,1-5.787,0L27.2,13.426a.85.85,0,0,0-1.168,0l-3.962,3.962a4.092,4.092,0,0,1-5.786,0l-3.962-3.962a.85.85,0,0,0-1.168,0L7.2,17.388a4.093,4.093,0,0,1-5.787,0A.826.826,0,1,0,.242,18.556a5.742,5.742,0,0,0,8.123,0l3.377-3.378,3.378,3.378a5.741,5.741,0,0,0,8.122,0l3.378-3.378L30,18.556a5.742,5.742,0,0,0,8.123,0L41.5,15.178l3.378,3.378a5.742,5.742,0,0,0,8.123,0,.826.826,0,1,0-1.168-1.168" fill="#f3c1c0"/>
    <path id="Path_8" data-name="Path 8" d="M51.83,30.581a4.093,4.093,0,0,1-5.787,0l-3.962-3.962a.85.85,0,0,0-1.168,0l-3.961,3.962a4.093,4.093,0,0,1-5.787,0L27.2,26.619a.85.85,0,0,0-1.168,0l-3.962,3.962a4.092,4.092,0,0,1-5.786,0l-3.962-3.962a.85.85,0,0,0-1.168,0L7.2,30.581a4.093,4.093,0,0,1-5.787,0A.826.826,0,1,0,.242,31.749a5.742,5.742,0,0,0,8.123,0l3.377-3.378,3.378,3.378a5.741,5.741,0,0,0,8.122,0l3.378-3.378L30,31.749a5.742,5.742,0,0,0,8.123,0L41.5,28.371l3.378,3.378a5.742,5.742,0,0,0,8.123,0,.826.826,0,1,0-1.168-1.168" fill="#f3c1c0"/>
    <path id="Path_9" data-name="Path 9" d="M4.3,7.045A5.708,5.708,0,0,0,8.366,5.362l3.377-3.378L15.12,5.362a5.742,5.742,0,0,0,8.123,0l3.378-3.378L30,5.362a5.742,5.742,0,0,0,8.123,0L41.5,1.984l3.378,3.378a5.742,5.742,0,0,0,8.123,0,.826.826,0,0,0-1.168-1.168,4.091,4.091,0,0,1-5.787,0L42.082.233a.848.848,0,0,0-1.168,0L36.953,4.194a4.091,4.091,0,0,1-5.787,0L27.2.233a.848.848,0,0,0-1.168,0L22.075,4.194a4.091,4.091,0,0,1-5.787,0L12.327.233a.848.848,0,0,0-1.168,0L7.2,4.194a4.092,4.092,0,0,1-5.788,0A.826.826,0,0,0,.242,5.362,5.706,5.706,0,0,0,4.3,7.045" fill="#f3c1c0"/>
  </g>
</svg>
