<svg xmlns="http://www.w3.org/2000/svg" width="1375.47" height="335.265" viewBox="0 0 1375.47 335.265">
  <g id="Group_15" data-name="Group 15" transform="translate(-272.805 -352.78)">
    <path id="Path_11" data-name="Path 11" d="M42.315,0h84.63c110.67,0,165.54-70.68,165.54-162.75S237.615-325.5,126.945-325.5H42.315c-4.185,0-6.51,2.79-6.51,6.975V-6.975C35.805-2.79,38.13,0,42.315,0Zm45.57-46.5V-279h38.13c77.19,0,113.925,42.78,113.925,116.25S203.205-46.5,126.015-46.5ZM324.105,0H485.46a6.59,6.59,0,0,0,6.975-6.975v-32.55A6.59,6.59,0,0,0,485.46-46.5H369.675v-96.72H478.95c4.185,0,6.975-2.325,6.975-6.51v-33.015a6.59,6.59,0,0,0-6.975-6.975H369.675V-279H485.46c4.185,0,6.51-2.79,6.51-6.975v-32.55c0-4.185-2.325-6.975-6.51-6.975H324.105c-4.185,0-6.51,2.79-6.51,6.975V-6.975C317.6-2.79,319.92,0,324.105,0ZM615.2,5.58c56.73,0,105.09-31.62,105.09-92.535,0-53.475-36.735-75.795-73.47-93.465l-35.8-16.74c-26.97-13.02-39.99-23.715-39.99-45.105,0-25.11,19.53-39.06,46.965-39.06,23.25,0,40.92,9.765,59.985,28.83,3.72,3.255,7.44,3.255,10.7-.93L707.73-276.21c3.255-3.72,3.72-6.975,0-10.7-23.715-26.97-53.475-42.315-91.6-42.315-53.01,0-95.79,32.085-95.79,86.955,0,43.71,27.435,68.355,61.845,84.63l39.525,18.6c27.435,13.02,47.895,24.18,47.895,52.08,0,28.365-20.925,44.64-54.87,44.64-30.69,0-50.685-13.02-69.75-34.875-3.255-3.255-6.975-3.72-10.7.465L514.755-54.4c-3.255,3.72-3.255,6.975-.93,10.23C532.425-17.67,566.37,5.58,615.2,5.58ZM750.975,0H789.57a6.59,6.59,0,0,0,6.975-6.975v-311.55a6.59,6.59,0,0,0-6.975-6.975H750.975c-4.185,0-6.51,2.79-6.51,6.975V-6.975C744.465-2.79,746.79,0,750.975,0Zm240.87,6.045c93,0,149.73-67.89,149.73-153.915v-22.785a6.59,6.59,0,0,0-6.975-6.975H995.1c-4.185,0-6.51,2.325-6.51,6.51v33.48c0,4.185,2.325,6.51,6.51,6.51h95.79c-.465,48.825-38.595,86.025-97.65,86.025-67.425,0-116.715-49.29-116.715-116.25s49.29-116.715,114.39-116.715c31.155,0,57.2,11.16,79.515,30.225,2.79,2.79,6.045,2.79,8.835-.465l23.715-25.575c3.255-3.72,3.255-6.975-.465-10.23-28.83-28.83-66.03-45.105-111.6-45.105-94.4,0-166.935,73.005-166.935,167.865S896.52,6.045,991.845,6.045ZM1356.87,0h47.43a6.59,6.59,0,0,0,6.975-6.975v-311.55a6.59,6.59,0,0,0-6.975-6.975h-38.595c-4.185,0-6.51,2.79-6.51,6.975v239.01L1226.67-320.85c-1.86-3.255-4.65-4.65-8.37-4.65h-47.43c-4.185,0-6.51,2.79-6.51,6.975V-6.975c0,4.185,2.325,6.975,6.51,6.975h38.6a6.59,6.59,0,0,0,6.975-6.975v-238.08L1348.5-4.65C1350.36-1.395,1353.15,0,1356.87,0Z" transform="translate(237 682)" fill="#f3c1c0"/>
  </g>
</svg>
