<svg xmlns="http://www.w3.org/2000/svg" xmlns:xlink="http://www.w3.org/1999/xlink" width="144.139" height="55" viewBox="0 0 144.139 55">
  <defs>
    <clipPath id="clip-path">
      <path id="Path_6" data-name="Path 6" d="M0-93.812H144.139v-55H0Z" transform="translate(0 148.813)" fill="#fff"/>
    </clipPath>
  </defs>
  <g id="Group_2" data-name="Group 2" transform="translate(0 148.813)">
    <g id="Group_1" data-name="Group 1" transform="translate(0 -148.813)" clip-path="url(#clip-path)">
      <path id="Path_1" data-name="Path 1" d="M7.842-113.328c0,5.746,4.13,10.116,9.817,10.116a9.368,9.368,0,0,0,7-2.813,10.06,10.06,0,0,0,2.813-7,11.086,11.086,0,0,0-2.394-7.063,9.018,9.018,0,0,0-7.423-3.292,9.75,9.75,0,0,0-9.817,10Zm27.475,12.57c0,5.387-1.017,8.859-3.053,11.613-2.813,3.771-8.32,6.764-15.084,6.764C8.768-82.381,3.954-86.5,1.841-90.8a1.924,1.924,0,0,1,1.725-2.777H8.832a1.949,1.949,0,0,1,1.6.867,7.664,7.664,0,0,0,2.911,2.485,9.4,9.4,0,0,0,4.31,1.138,9.505,9.505,0,0,0,9.757-9.877v-2.753a11.71,11.71,0,0,1-10.655,5.866C7.3-95.849,0-103.032,0-113.148a17.458,17.458,0,0,1,5.844-13.6,16.648,16.648,0,0,1,10.916-3.941c4.729,0,8.8,2.155,10.655,5.387v-2.766a1.664,1.664,0,0,1,1.664-1.664h4.573a1.664,1.664,0,0,1,1.664,1.664Z" transform="translate(0 137.386)" fill="#fff"/>
      <path id="Path_2" data-name="Path 2" d="M106.834-129.676h4.622a1.4,1.4,0,0,1,1.4,1.4v2.91a9.085,9.085,0,0,1,7.53-5.226,1.4,1.4,0,0,1,1.568,1.392v6.408H121.6c-5.507,0-8.32,2.574-8.32,8.26v16.318a1.4,1.4,0,0,1-1.4,1.4h-5.042a1.4,1.4,0,0,1-1.4-1.4v-30.062a1.4,1.4,0,0,1,1.4-1.4" transform="translate(-66.466 137.333)" fill="#fff"/>
      <path id="Path_3" data-name="Path 3" d="M255.509-129.831h5.217a1.073,1.073,0,0,1,1.073,1.073v3.058a10.824,10.824,0,0,1,9.577-5.148,10.671,10.671,0,0,1,8.081,3.352,11.406,11.406,0,0,1,1.124,1.512,1.072,1.072,0,0,0,1.774.054,11.909,11.909,0,0,1,1.471-1.685,12.071,12.071,0,0,1,8.38-3.232,12.1,12.1,0,0,1,8.739,3.292c2.993,3.112,3.591,5.806,3.591,12.57v16.945a1.073,1.073,0,0,1-1.072,1.073h-5.7a1.073,1.073,0,0,1-1.073-1.073v-16.646c0-2.095-.179-4.37-1.316-6.105-.838-1.616-2.395-2.694-5.148-2.694a6.156,6.156,0,0,0-5.686,2.993,10.4,10.4,0,0,0-1.138,5.507v16.945a1.072,1.072,0,0,1-1.073,1.073h-5.7a1.072,1.072,0,0,1-1.072-1.073v-16.945a11.962,11.962,0,0,0-1.017-5.447,5.789,5.789,0,0,0-5.388-3.053,6.119,6.119,0,0,0-5.627,3.053,11.787,11.787,0,0,0-1.257,5.687v16.705a1.072,1.072,0,0,1-1.072,1.073h-5.7a1.072,1.072,0,0,1-1.073-1.073v-30.717a1.072,1.072,0,0,1,1.073-1.073" transform="translate(-160.399 137.488)" fill="#fff"/>
      <path id="Path_4" data-name="Path 4" d="M188.141-97.891v5.505h-5.357a5.462,5.462,0,0,0,6.187,5.107,2.007,2.007,0,0,1-.213-.9,2.02,2.02,0,0,1,2.02-2.02,2.016,2.016,0,0,1,1.709.948,5.393,5.393,0,0,0,.506-.83,5.479,5.479,0,0,0-4.852-7.811" transform="translate(-115.229 116.711)" fill="#fff"/>
      <path id="Path_5" data-name="Path 5" d="M177-124.455a11.271,11.271,0,0,1-1.257,4.609A9.3,9.3,0,0,1,167-114.579c-7.063,0-10-5.926-10-10v-.06c0-5.088,4.013-12.277,10-10.176,3.439,1.077,7.181,1.476,9.095,5.746a10.227,10.227,0,0,1,.9,4.609m7.782-11.586a3.6,3.6,0,0,0-1.56-2.973c-4.147-2.838-8.6-5.341-13.637-5.495-5.607-.171-12.951.923-17.215-4.3-.027,4.512,1.8,5.941,3.986,9.544a17.183,17.183,0,0,0-7.191,14.514c0,9.278,6.166,17.479,16.7,17.479,4.609,0,8.979-1.916,11.074-5.746l4.132,10.265,3.246-9.272a3.828,3.828,0,0,0,.464-1.826Z" transform="translate(-94.033 148.812)" fill="#fff"/>
    </g>
  </g>
</svg>
